<?xml version="1.0" standalone="no"?>
<!DOCTYPE svg PUBLIC "-//W3C//DTD SVG 20010904//EN"
 "http://www.w3.org/TR/2001/REC-SVG-20010904/DTD/svg10.dtd">
<svg version="1.0" xmlns="http://www.w3.org/2000/svg"
 width="512.000000pt" height="512.000000pt" viewBox="0 0 512.000000 512.000000"
 preserveAspectRatio="xMidYMid meet">

<g transform="translate(0.000000,512.000000) scale(0.100000,-0.100000)"
fill="#8A2BE2" stroke="none">
<path d="M2375 5113 c-164 -21 -315 -68 -480 -148 -396 -192 -677 -545 -746
-935 -20 -117 -15 -271 21 -597 l34 -302 -28 -112 c-106 -429 -322 -866 -581
-1171 -36 -43 -65 -80 -65 -82 0 -7 104 -45 164 -61 33 -8 98 -20 145 -26 47
-5 86 -11 88 -12 1 -2 -42 -23 -95 -47 -351 -161 -538 -310 -664 -530 -100
-175 -175 -536 -164 -790 2 -69 5 -140 5 -157 0 -25 4 -31 15 -27 9 3 27 -8
44 -27 l30 -33 -20 -26 -20 -25 21 -3 c11 -2 30 3 41 11 18 12 26 12 58 1 30
-11 460 -13 2377 -14 1582 0 2352 3 2377 10 53 15 118 68 153 125 29 46 30 54
34 178 11 415 -111 765 -342 983 -110 104 -225 180 -412 275 -171 86 -168 77
-30 95 51 7 219 57 244 73 11 7 2 23 -40 72 -288 346 -480 881 -553 1539 -28
249 -29 308 -11 403 21 111 9 246 -35 400 -138 479 -602 864 -1146 951 -93 15
-335 20 -419 9z m-89 -820 c110 -151 268 -288 415 -359 135 -66 222 -85 504
-109 187 -17 231 -24 312 -51 74 -25 179 -100 232 -166 l49 -60 -34 -127 c-83
-313 -249 -653 -443 -906 -63 -83 -203 -227 -279 -287 -189 -151 -391 -216
-581 -189 -183 27 -333 102 -500 250 -196 174 -384 462 -505 771 -72 187 -72
187 -46 266 115 351 284 624 508 820 86 76 285 214 307 214 6 0 33 -30 61 -67z
m884 -2245 c52 -86 -2 -243 -180 -518 -223 -346 -330 -558 -406 -802 -10 -32
-20 -58 -23 -58 -3 0 -23 49 -43 109 -68 199 -188 441 -326 653 -161 247 -222
360 -246 454 -23 89 -20 174 6 174 5 0 34 -20 65 -45 171 -139 385 -214 578
-202 155 10 306 76 463 204 42 34 80 62 85 63 4 0 16 -15 27 -32z"/>
</g>
</svg>
