<?xml version="1.0" standalone="yes"?>
<svg xmlns="http://www.w3.org/2000/svg" width="540" height="540">
<path style="fill:#ffffff; stroke:none;" d="M0 0L0 540L222 540L222 539C180.343 539 138.355 534.104 97 529.155C79.6838 527.083 56.667 527.715 42 517.211C26.924 506.415 29 486.684 29 470C29 444.694 34.1655 419.307 52.3002 400.17C69.052 382.492 97.1158 371.628 119.999 364.675C130.316 361.541 142.264 386.595 148.2 394C164.17 413.924 183.161 431.81 205 445.189C211.736 449.316 221.853 456.557 230 456.707C239.726 456.885 252.069 444.257 259 438.41C261.585 436.229 265.367 431.128 269 431.041C272.915 430.947 277.247 436.422 280 438.715C287.221 444.727 295.971 452.003 305 455.03C315.663 458.604 333.887 443.794 342 437.845C361.995 423.181 379.056 404.787 393.873 385C397.383 380.314 405.179 363.35 411.44 363.194C420.224 362.975 433.004 370.575 441 374.001C456.175 380.502 472.267 388.029 483.96 400.015C501.404 417.895 509 446.717 509 471C509 486.098 511.201 502.964 499.815 514.907C488.016 527.282 464.817 525.261 449 527.155C404.311 532.506 359.033 539 314 539L314 540L540 540L540 0L0 0z"/>
<path style="fill:#55b7e5; stroke:none;" d="M156 160C125.691 168.748 144.207 204.844 155.343 222C162.634 233.232 166.364 246.287 172.861 258C190.708 290.176 218.466 321.518 257 326.711C320.134 335.22 354.425 278.257 377.181 229C383.915 214.424 394.55 202.583 396.711 186C397.614 179.065 396.76 171.775 392.211 166.185C388.993 162.232 383.19 160.905 383.484 154.996C385.795 108.52 389.94 60.7346 348 28.8989C302.849 -5.3736 218.988 -3.98663 179.17 39.0146C150.423 70.0591 144.854 120.339 156 160z"/>
<path style="fill:#ffffff; stroke:none;" d="M181 189L180 189C178.618 182.324 176.455 173.827 170.895 169.323C163.378 163.233 157.837 176.09 157.188 182C155.462 197.739 169.002 207.861 174.301 221C193.453 268.489 230.881 325.312 291 307.279C299.51 304.726 307.919 300.459 315 295.1C334.014 280.712 346.52 260.127 356.742 239C360.147 231.961 361.842 223.68 365.829 217C373.48 204.179 389.191 187.243 377.856 171.11C368.691 158.066 358.949 187.021 357 193L356 193C361.399 173.832 364 154.876 364 135C327.823 135 292.238 127.383 260 110.742C250.09 105.626 240.568 99.2033 232 92.0795C228.137 88.8672 223.194 82.1746 218 81.5023C209.901 80.4539 199.815 88.141 194 92.8079C162.48 118.104 176.592 154.864 181 189z"/>
<path style="fill:#55b7e5; stroke:none;" d="M364 328C347.065 368.677 311.726 399.519 275 422C280.735 429.792 298.532 446.695 309 446.457C315.594 446.307 323.7 439.848 329 436.333C346.612 424.649 362.531 410.232 376.08 394C383.543 385.059 390.22 375.688 396.667 366C398.759 362.855 403.078 358.124 402.183 354.015C401.31 350.008 396.078 346.97 393 344.745C384.121 338.326 374.064 332.337 364 328M263 422C222.96 404.746 193.287 367.437 172 331C161.269 334.097 150.793 341.939 142 348.654C139.371 350.662 134.493 353.418 134.022 357.039C133.509 360.975 138.04 366.013 140.144 369C146.731 378.347 153.524 387.334 161 396C175.012 412.243 191.02 425.982 209 437.655C214.2 441.031 223.564 447.828 230 447.509C240.617 446.984 257.324 430.057 263 422M410.104 363.068C406.653 363.889 404.774 368.311 402.997 371C398.229 378.216 393.144 385.207 387.789 392C372.162 411.825 353.396 430.396 332 443.947C325.882 447.822 316.411 454.925 309 455.397C299.675 455.99 286.591 443.462 280 437.866C277.256 435.536 272.914 430.157 269 430.203C264.4 430.257 258.403 438.11 255 440.916C249.017 445.849 238.253 456.501 230 456.447C224.664 456.411 218.605 452.118 214 449.742C189.475 437.082 168.031 417.163 150.615 396C144.515 388.588 138.666 380.984 133.333 373C131.425 370.143 129.151 364.898 125.674 363.697C120.492 361.906 110.846 367.527 106 369.319C87.6878 376.09 67.4418 384.738 53.1736 398.428C30.9152 419.786 28.8625 450.33 29.0008 479C29.0926 498.051 30.4915 515.061 51 522.301C62.48 526.353 75.9711 526.715 88 528.155C110.307 530.826 132.602 533.52 155 535.089C232.591 540.528 309.462 541.922 387 534.169C410.704 531.799 434.336 528.988 458 526.155C469.472 524.782 483.688 525.792 494 520.095C512.074 510.11 509 487.359 509 470C509 445.909 501.507 416.647 483.96 399.039C472.757 387.798 457.36 380.653 443 374.424C435.346 371.104 418.456 361.082 410.104 363.068z"/>
</svg>
